<svg xmlns="http://www.w3.org/2000/svg" width="133.058" height="140.815" viewBox="0 0 133.058 140.815">
  <path id="Path_1000" data-name="Path 1000" d="M1036.856,4485.713a83.7,83.7,0,0,1,15.858,1.319,80.65,80.65,0,0,1,16.266,4.654,59.588,59.588,0,0,1,12.057,6.473,53.622,53.622,0,0,1,8.867,7.456,61.177,61.177,0,0,1,10.729,15.491,81.909,81.909,0,0,1,6.453,20.536c.519,3.007.8,6.036,1.043,9.077a69.775,69.775,0,0,1,.082,9,83.39,83.39,0,0,1-2.337,16.26,79.756,79.756,0,0,1-6.749,17.852,50.61,50.61,0,0,1-6.928,10.138,60.637,60.637,0,0,1-8.881,8.581,64.76,64.76,0,0,1-14.409,8.156,76.556,76.556,0,0,1-12.969,3.917,90.069,90.069,0,0,1-12.033,1.647,61.32,61.32,0,0,1-7.379.224,97.5,97.5,0,0,1-12.644-1.247,86.84,86.84,0,0,1-11.151-2.943,52.923,52.923,0,0,1-16.377-9.527,43.131,43.131,0,0,1-5.653-6.064,51.161,51.161,0,0,1-5.246-7.558,68.913,68.913,0,0,1-4.494-9.765,80.378,80.378,0,0,1-2.734-8.945q-1.139-4.776-1.808-9.653c-.3-2.186-.485-4.363-.746-6.563-.175-1.42,0-2.856-.2-4.282-.485-3.636,0-7.272.208-10.883a90.345,90.345,0,0,1,1.546-11.549,87.514,87.514,0,0,1,4.974-17.125,59.151,59.151,0,0,1,9.958-16.405,47.782,47.782,0,0,1,10.758-9.406,62.048,62.048,0,0,1,8.329-4.217,56.037,56.037,0,0,1,11.733-3.395,66.016,66.016,0,0,1,8.882-1.12C1033.647,4485.732,1035.45,4485.762,1036.856,4485.713Z" transform="translate(-975.26 -4485.707)" fill="#222"/>
</svg>
