<svg id="Icons_Book" data-name="Icons/Book" xmlns="http://www.w3.org/2000/svg" width="32" height="32" viewBox="0 0 32 32">
  <path id="Path_494" data-name="Path 494" d="M139.506,339H126.287a5.258,5.258,0,0,0-3.738,1.563A5.351,5.351,0,0,0,121,344.333v16a5.351,5.351,0,0,0,1.549,3.771,5.258,5.258,0,0,0,3.738,1.563h13.219a2.633,2.633,0,0,0,1.869-.781A2.679,2.679,0,0,0,142.15,363V341.667a2.679,2.679,0,0,0-.775-1.885A2.633,2.633,0,0,0,139.506,339Zm-15.862,5.333a2.679,2.679,0,0,1,.775-1.885,2.633,2.633,0,0,1,1.869-.781h13.219V355H126.287a5.13,5.13,0,0,0-2.644.747ZM126.287,363a2.633,2.633,0,0,1-1.869-.781,2.682,2.682,0,0,1,0-3.771,2.633,2.633,0,0,1,1.869-.781h13.219V363Zm2.644-16h5.287a1.313,1.313,0,0,0,.935-.391,1.341,1.341,0,0,0,0-1.885,1.313,1.313,0,0,0-.935-.391h-5.287a1.313,1.313,0,0,0-.935.391,1.341,1.341,0,0,0,0,1.885A1.313,1.313,0,0,0,128.931,347Z" transform="translate(-115.667 -336.333)" fill="#222"/>
  <rect id="bg" width="32" height="32" fill="none"/>
</svg>
