<svg id="Icons_Lecture" data-name="Icons/Lecture" xmlns="http://www.w3.org/2000/svg" width="18" height="18" viewBox="0 0 18 18">
  <rect id="bg" width="18" height="18" fill="none"/>
  <g id="Group_112" data-name="Group 112" transform="translate(2.032 0.795)">
    <path id="Path_766" data-name="Path 766" d="M5.617,2.706h0c2.048,0,2.729.51,2.953.814a.75.75,0,0,1,.146.445v11.47a.754.754,0,0,1-.577.736.743.743,0,0,1-.839-.391,2.353,2.353,0,0,0-2.011-1.165,3.9,3.9,0,0,0-2.3.426,4.939,4.939,0,0,1-.885.4.75.75,0,0,1-.983-.713V4.139a.75.75,0,0,1,.453-.689A9,9,0,0,1,5.285,2.71C5.4,2.707,5.509,2.706,5.617,2.706Zm1.6,1.688a5.166,5.166,0,0,0-1.6-.188c-.1,0-.2,0-.308,0H5.278a7.5,7.5,0,0,0-2.661.439v8.895a5.791,5.791,0,0,1,2.672-.43,3.7,3.7,0,0,1,1.927.522Z" transform="translate(-0.875 -0.779)" fill="#222"/>
    <path id="Path_767" data-name="Path 767" d="M10.592,16.3a.75.75,0,0,1-.649-1.124,4.792,4.792,0,0,1,4.042-2.037h.036a3.8,3.8,0,0,1,1.9.387V4.49a1.525,1.525,0,0,0-.94-.522.75.75,0,0,1,.22-1.484A3.024,3.024,0,0,1,17.3,3.84a.75.75,0,0,1,.119.405V14.837a.75.75,0,0,1-1.08.674,6.757,6.757,0,0,1-.754-.439,2.254,2.254,0,0,0-1.578-.434,3.379,3.379,0,0,0-2.768,1.284A.75.75,0,0,1,10.592,16.3Z" transform="translate(-3.388 -0.713)" fill="#222"/>
    <path id="Path_768" data-name="Path 768" d="M10.435,13.664a.75.75,0,0,1-.371-1.4c.009-.005.958-.543,1.926-1.074.85-.466,1.379-.745,1.721-.912,0-.271,0-.638,0-1.073,0-.832,0-1.991,0-3.446s0-2.913.006-3.879a12.839,12.839,0,0,0-2.675,1.7.75.75,0,1,1-.953-1.158A14.153,14.153,0,0,1,14.21.046a.75.75,0,0,1,1.008.706c-.008,3.78-.015,9.493,0,9.955a.75.75,0,0,1-.588.8c-.371.144-2.214,1.15-3.824,2.063A.747.747,0,0,1,10.435,13.664Z" transform="translate(-3.342 0)" fill="#222"/>
    <path id="Line_30" data-name="Line 30" d="M-.187,1.244A.561.561,0,0,1-.6,1.063.563.563,0,0,1-.569.268L.375-.6a.563.563,0,0,1,.795.033.563.563,0,0,1-.033.795L.194,1.1A.561.561,0,0,1-.187,1.244Z" transform="translate(8.831 3.954)" fill="#222"/>
    <path id="Line_31" data-name="Line 31" d="M-.188.377A.563.563,0,0,1-.751-.185.563.563,0,0,1-.188-.748l2.377,0a.563.563,0,0,1,.563.562A.563.563,0,0,1,2.19.375l-2.377,0Z" transform="translate(3.111 5.391)" fill="#222"/>
    <path id="Line_32" data-name="Line 32" d="M-.188.377A.563.563,0,0,1-.751-.185.563.563,0,0,1-.188-.748l2.377,0a.563.563,0,0,1,.563.562A.563.563,0,0,1,2.19.375l-2.377,0Z" transform="translate(3.111 7.214)" fill="#222"/>
    <path id="Line_33" data-name="Line 33" d="M-.188.377A.563.563,0,0,1-.751-.185.563.563,0,0,1-.188-.748l2.377,0a.563.563,0,0,1,.563.562A.563.563,0,0,1,2.19.375l-2.377,0Z" transform="translate(3.111 9.14)" fill="#222"/>
    <path id="Line_34" data-name="Line 34" d="M-.188.377A.563.563,0,0,1-.751-.185.563.563,0,0,1-.188-.748l2.377,0a.563.563,0,0,1,.563.562A.563.563,0,0,1,2.19.375l-2.377,0Z" transform="translate(3.111 11.087)" fill="#222"/>
    <path id="Line_35" data-name="Line 35" d="M-.187,1.244A.561.561,0,0,1-.6,1.063.563.563,0,0,1-.569.268L.375-.6a.563.563,0,0,1,.795.033.563.563,0,0,1-.033.795L.194,1.1A.561.561,0,0,1-.187,1.244Z" transform="translate(8.831 5.728)" fill="#222"/>
    <path id="Line_36" data-name="Line 36" d="M-.187,1.244A.561.561,0,0,1-.6,1.063.563.563,0,0,1-.569.268L.375-.6a.563.563,0,0,1,.795.033.563.563,0,0,1-.033.795L.194,1.1A.561.561,0,0,1-.187,1.244Z" transform="translate(8.831 7.502)" fill="#222"/>
    <path id="Line_37" data-name="Line 37" d="M-.187,1.244A.561.561,0,0,1-.6,1.063.563.563,0,0,1-.569.268L.375-.6a.563.563,0,0,1,.795.033.563.563,0,0,1-.033.795L.194,1.1A.561.561,0,0,1-.187,1.244Z" transform="translate(8.831 9.277)" fill="#222"/>
    <path id="Path_769" data-name="Path 769" d="M12.641,17.31H1.658A1.659,1.659,0,0,1,0,15.652V6.3a.75.75,0,1,1,1.5,0v9.355a.158.158,0,0,0,.158.157H12.641a.158.158,0,0,0,.158-.157V6.3a.75.75,0,0,1,1.5,0v9.355A1.659,1.659,0,0,1,12.641,17.31Z" transform="translate(0 -1.366)" fill="#222"/>
  </g>
</svg>
