<svg id="Icons_Hand" data-name="Icons/Hand" xmlns="http://www.w3.org/2000/svg" width="32" height="32" viewBox="0 0 32 32">
  <g id="Group_92" data-name="Group 92" transform="translate(2.739 1.37)">
    <path id="Path_521" data-name="Path 521" d="M259.2,398.569a1.37,1.37,0,0,1-1.37-1.37V387.79a.986.986,0,1,0-1.959,0v7.868a1.37,1.37,0,0,1-2.739,0V387.79a3.721,3.721,0,1,1,7.437,0V397.2A1.37,1.37,0,0,1,259.2,398.569Z" transform="translate(-238.925 -381.28)" fill="#222"/>
    <path id="Path_522" data-name="Path 522" d="M255.756,397.215a1.37,1.37,0,0,1-1.37-1.37v-10a.986.986,0,1,0-1.957,0v7.837a1.37,1.37,0,1,1-2.739,0v-7.837a3.72,3.72,0,1,1,7.436,0v10A1.37,1.37,0,0,1,255.756,397.215Z" transform="translate(-240.197 -382)" fill="#222"/>
    <path id="Path_523" data-name="Path 523" d="M247.62,398.918a1.37,1.37,0,0,1-1.37-1.37v-8.978a3.72,3.72,0,1,1,7.436,0v6.757a1.37,1.37,0,1,1-2.739,0v-6.757a.986.986,0,1,0-1.957,0v8.978A1.37,1.37,0,0,1,247.62,398.918Z" transform="translate(-241.469 -380.992)" fill="#222"/>
    <path id="Path_524" data-name="Path 524" d="M255.826,410.582a10.455,10.455,0,0,1-5.7-1.7,1.37,1.37,0,1,1,1.491-2.3,7.7,7.7,0,0,0,9.883-1.214,8.772,8.772,0,0,0,2.381-6.081V390.04a.986.986,0,1,0-1.957,0v6.327a1.37,1.37,0,1,1-2.739,0V390.04a3.72,3.72,0,1,1,7.436,0v9.246a11.5,11.5,0,0,1-3.134,7.968A10.49,10.49,0,0,1,255.826,410.582Z" transform="translate(-240.267 -380.448)" fill="#222"/>
    <path id="Path_525" data-name="Path 525" d="M253.713,407a1.364,1.364,0,0,1-.871-.313l-8.685-7.162a3.818,3.818,0,0,1-.463-5.455,3.942,3.942,0,0,1,5.4-.541l4.761,3.69a1.37,1.37,0,1,1-1.678,2.165l-4.761-3.69a1.217,1.217,0,0,0-1.647.164,1.079,1.079,0,0,0,.132,1.552l8.685,7.162a1.37,1.37,0,0,1-.872,2.426Z" transform="translate(-242.759 -378.043)" fill="#222"/>
  </g>
  <rect id="bg" width="32" height="32" fill="none"/>
</svg>
