<svg xmlns="http://www.w3.org/2000/svg" width="15" height="15" viewBox="0 0 15 15">
  <path id="Path_492" data-name="Path 492" d="M194.5,339a7.5,7.5,0,1,0,2.87.571A7.5,7.5,0,0,0,194.5,339Zm0,13.5a6,6,0,1,1,4.243-1.757A6,6,0,0,1,194.5,352.5Zm1.575-7.777-.825.48V342.75a.75.75,0,0,0-1.5,0v3.795a1,1,0,0,0,0,.15.95.95,0,0,0,.045.135v.045a1.155,1.155,0,0,0,.12.15.69.69,0,0,0,.21.142h.06a.644.644,0,0,0,.57.03h.12l1.95-1.125a.753.753,0,1,0-.75-1.3Z" transform="translate(-187 -339)" fill="#222"/>
</svg>
