<svg id="Icons_Bookmark" data-name="Icons/Bookmark" xmlns="http://www.w3.org/2000/svg" width="35" height="32" viewBox="0 0 35 32">
  <rect id="bg" width="35" height="32" fill="none"/>
  <path id="Path_1884" data-name="Path 1884" d="M166.491,870.843l-1.21-.054-.177-.1a3.046,3.046,0,0,1-2.4-3.037V849.622a12.634,12.634,0,0,1,.043-1.527l.006-.054a3.647,3.647,0,0,1,3.668-3h14.237a3.707,3.707,0,0,1,3.8,2.67,3.523,3.523,0,0,1,.11.914v19.053a3.036,3.036,0,0,1-2.377,3.033l-.206.126h-1.247l-.2-.052a4.3,4.3,0,0,1-2.027-1.181c-.988-.911-2-1.832-2.972-2.722q-.953-.87-1.906-1.742c-1.6,1.459-3.244,2.966-4.88,4.466a4.293,4.293,0,0,1-2.034,1.18Zm14.7-2.676h.069l.1-.017a.339.339,0,0,0,.3-.349l0-.089V848.6a1.07,1.07,0,0,0-.033-.281l0-.007a.838.838,0,0,0-.867-.6h-14.3a.8.8,0,0,0-.8.64,10.183,10.183,0,0,0-.031,1.216v.042l0,18.171a.344.344,0,0,0,.3.353l.126.021.024.008.042,0a1.314,1.314,0,0,0,.463-.321l.039-.042.042-.039c1.668-1.53,3.349-3.066,4.976-4.553a2.815,2.815,0,0,1,4.016,0q.978.9,1.958,1.79c.99.9,2.015,1.839,3.02,2.766l.041.038.037.041A1.321,1.321,0,0,0,181.188,868.167Z" transform="translate(-156.134 -842.271)" fill="#222"/>
</svg>
