<svg id="Logo_CIMA" data-name="Logo/CIMA" xmlns="http://www.w3.org/2000/svg" width="153" height="63" viewBox="0 0 153 63">
  <rect id="Rectangle_212" data-name="Rectangle 212" width="153" height="63" fill="none"/>
  <g id="Group_95" data-name="Group 95" transform="translate(16.351 9.333)">
    <g id="Group_78" data-name="Group 78" transform="translate(0 38.631)" opacity="0.996">
      <path id="Path_541" data-name="Path 541" d="M776.714,330.9h-2.025v-.671h4.819v.671h-2.057V336.4h-.78Z" transform="translate(-774.689 -329.67)" fill="#3e90ce"/>
      <path id="Path_542" data-name="Path 542" d="M779.678,333.894a2.283,2.283,0,0,1,2.35-2.391,1.958,1.958,0,0,1,2.057,2.163,2.823,2.823,0,0,1,0,.466h-3.9v-.617h3.368l-.2.217c0-1.083-.53-1.612-1.354-1.612a1.6,1.6,0,0,0-1.57,1.774,1.639,1.639,0,0,0,.468,1.3,1.644,1.644,0,0,0,1.3.484,2.37,2.37,0,0,0,1.376-.433l.281.508a3.03,3.03,0,0,1-1.744.552,2.3,2.3,0,0,1-2.436-2.411Z" transform="translate(-773.852 -329.458)" fill="#3e90ce"/>
      <path id="Path_543" data-name="Path 543" d="M784.545,333.915a2.348,2.348,0,0,1,2.513-2.412,2.274,2.274,0,0,1,1.646.671l-.38.5a1.864,1.864,0,0,0-1.235-.519,1.679,1.679,0,0,0-1.754,1.763,1.646,1.646,0,0,0,1.733,1.742,2.166,2.166,0,0,0,1.4-.573l.347.507a2.725,2.725,0,0,1-1.8.714,2.3,2.3,0,0,1-1.773-.639,2.293,2.293,0,0,1-.7-1.751Z" transform="translate(-773.034 -329.459)" fill="#3e90ce"/>
      <path id="Path_544" data-name="Path 544" d="M789.107,331.668h.618l.065.6a1.084,1.084,0,0,1,1.028-.714c.445,0,.726.271.856.79.259-.487.541-.79,1.083-.79s1,.5,1,1.418v3.245H793v-3.245c0-.531-.152-.8-.487-.8s-.477.238-.715.7v3.311h-.715v-3.246c0-.53-.13-.8-.466-.8s-.52.238-.736.7v3.311h-.77Z" transform="translate(-772.268 -329.45)" fill="#3e90ce"/>
      <path id="Path_545" data-name="Path 545" d="M796.25,332.541h-2.089v-.573h2.87v4.565h-.78Zm-.3-2.163a.613.613,0,0,1,.1-.345.616.616,0,0,1,.951-.105.616.616,0,0,1-.432,1.056.581.581,0,0,1-.456-.177.591.591,0,0,1-.132-.212.6.6,0,0,1-.029-.248Z" transform="translate(-771.419 -329.75)" fill="#3e90ce"/>
      <path id="Path_546" data-name="Path 546" d="M800.408,334.945V330.4h-1.6V329.8h2.371v5.224c0,.66.347.941.889.941a2.006,2.006,0,0,0,.844-.207l.2.585a2.768,2.768,0,0,1-1.2.271C800.939,336.589,800.408,336.027,800.408,334.945Z" transform="translate(-770.639 -329.742)" fill="#3e90ce"/>
      <path id="Path_547" data-name="Path 547" d="M803.525,333.894a2.294,2.294,0,0,1,2.307-2.391,1.954,1.954,0,0,1,1.537.6,1.96,1.96,0,0,1,.531,1.561,2.823,2.823,0,0,1,0,.466h-3.888v-.617h3.358l-.2.217c0-1.083-.53-1.612-1.354-1.612a1.608,1.608,0,0,0-.642.149,1.6,1.6,0,0,0-.917,1.625,1.635,1.635,0,0,0,.468,1.3,1.644,1.644,0,0,0,1.3.484,2.389,2.389,0,0,0,1.376-.433l.282.509a3.1,3.1,0,0,1-1.754.551,2.311,2.311,0,0,1-1.736-.675,2.33,2.33,0,0,1-.517-.8A2.3,2.3,0,0,1,803.525,333.894Z" transform="translate(-769.847 -329.459)" fill="#3e90ce"/>
      <path id="Path_548" data-name="Path 548" d="M808.507,331.668h.639l.065.768a2.349,2.349,0,0,1,1.7-.887c1.084,0,1.56.638,1.56,1.85v2.834h-.77v-2.791c0-.866-.292-1.266-1.083-1.266-.541,0-.9.271-1.419.823v3.179h-.779Z" transform="translate(-769.024 -329.45)" fill="#3e90ce"/>
      <path id="Path_549" data-name="Path 549" d="M815.38,332.541h-2.167v-.573h2.87v4.565h-.7Zm-.3-2.163a.619.619,0,0,1,.374-.577.616.616,0,0,1,.676.127.608.608,0,0,1,.172.315.627.627,0,0,1-.033.358.617.617,0,0,1-.228.278.61.61,0,0,1-.343.105.583.583,0,0,1-.486-.159.592.592,0,0,1-.142-.219.577.577,0,0,1-.033-.26Z" transform="translate(-768.219 -329.75)" fill="#3e90ce"/>
      <path id="Path_550" data-name="Path 550" d="M817.778,333.868a2.241,2.241,0,1,1,2.252,2.39,2.229,2.229,0,0,1-2.252-2.39Zm3.671,0c0-1.082-.575-1.763-1.44-1.763s-1.441.714-1.441,1.763.575,1.742,1.441,1.742S821.449,334.874,821.449,333.868Z" transform="translate(-767.454 -329.412)" fill="#3e90ce"/>
    </g>
    <path id="Path_551" data-name="Path 551" d="M800.757,319.622l4.558,1.157a15.551,15.551,0,0,1-5.154,8.654,14.089,14.089,0,0,1-9.1,2.985,16.252,16.252,0,0,1-9.053-2.294,14.316,14.316,0,0,1-5.306-6.663,23.769,23.769,0,0,1-1.83-9.346,20.8,20.8,0,0,1,2.057-9.5,14.26,14.26,0,0,1,5.9-6.133,16.9,16.9,0,0,1,8.3-2.066,14.016,14.016,0,0,1,8.663,2.661,13.812,13.812,0,0,1,4.906,7.485l-4.484,1.082a10.81,10.81,0,0,0-3.476-5.538,9.178,9.178,0,0,0-5.729-1.731,11.006,11.006,0,0,0-6.639,1.926,10.1,10.1,0,0,0-3.7,5.128,20.9,20.9,0,0,0-1.083,6.7,21.744,21.744,0,0,0,1.278,7.766,9.661,9.661,0,0,0,3.985,4.955,11.066,11.066,0,0,0,5.848,1.644,9.753,9.753,0,0,0,6.5-2.239A11.442,11.442,0,0,0,800.757,319.622Z" transform="translate(-774.659 -296.412)"/>
    <path id="Path_552" data-name="Path 552" d="M808.912,331.765V296.89h4.548v34.875Z" transform="translate(-768.98 -296.332)"/>
    <path id="Path_553" data-name="Path 553" d="M822.486,331.765V296.89h6.866l8.143,24.7c.758,2.294,1.3,4.013,1.647,5.16.389-1.266,1.007-3.137,1.83-5.593l8.241-24.263h6.129v34.875h-4.4V302.559l-9.465,29.206H836.24l-9.368-29.682v29.682Z" transform="translate(-766.733 -296.332)"/>
    <path id="Path_554" data-name="Path 554" d="M876.755,313.988h-18.81l-5.176,14.927h5.468l3.455-10.676h11.143l3.529,10.676h5.62Z" transform="translate(-761.687 -293.658)"/>
    <path id="Path_555" data-name="Path 555" d="M866.26,304.039l2.9,8.794h5.252L868.826,296.9H863.91l-5.523,15.933h5.024Z" transform="translate(-760.744 -296.331)" fill="#3e90ce"/>
  </g>
</svg>
