<svg id="Icons_Bookmark_exp" data-name="Icons/Bookmark/exp" xmlns="http://www.w3.org/2000/svg" width="48" height="48" viewBox="0 0 48 48">
  <g id="Icons_Bookmark" data-name="Icons/Bookmark">
    <rect id="bg" width="48" height="48" fill="none"/>
    <path id="Path_1884" data-name="Path 1884" d="M167.9,883.747l-1.66-.081-.243-.153a4.509,4.509,0,0,1-3.293-4.556V851.915a20.727,20.727,0,0,1,.059-2.291l.008-.081a5.145,5.145,0,0,1,5.031-4.5h19.525a5.142,5.142,0,0,1,5.212,4.005,5.756,5.756,0,0,1,.15,1.371v28.58a4.5,4.5,0,0,1-3.26,4.55l-.282.189h-1.711l-.271-.078a5.8,5.8,0,0,1-2.78-1.771c-1.355-1.366-2.738-2.747-4.077-4.083q-1.307-1.3-2.614-2.613c-2.189,2.189-4.449,4.449-6.692,6.7a5.8,5.8,0,0,1-2.789,1.77Z" transform="translate(-153.696 -840.89)" fill="#ddd"/>
  </g>
  <g id="Icons_Bookmark-2" data-name="Icons/Bookmark">
    <rect id="bg-2" data-name="bg" width="48" height="48" fill="none"/>
    <path id="Path_1884-2" data-name="Path 1884" d="M167.9,883.747l-1.66-.081-.243-.153a4.509,4.509,0,0,1-3.293-4.556V851.915a20.719,20.719,0,0,1,.059-2.291l.008-.081a5.145,5.145,0,0,1,5.031-4.5h19.526a5.142,5.142,0,0,1,5.213,4.005,5.755,5.755,0,0,1,.15,1.371v28.579a4.5,4.5,0,0,1-3.26,4.55l-.282.189h-1.711l-.271-.078a5.8,5.8,0,0,1-2.78-1.771c-1.355-1.367-2.738-2.747-4.077-4.083q-1.307-1.3-2.614-2.613c-2.189,2.189-4.449,4.449-6.692,6.7a5.8,5.8,0,0,1-2.789,1.77Zm20.156-4.014h.094l.139-.026a.5.5,0,0,0,.407-.523l0-.133V850.375a1.75,1.75,0,0,0-.046-.422l0-.01a1.161,1.161,0,0,0-1.189-.906l-.087,0H167.841a1.132,1.132,0,0,0-1.093.959,16.7,16.7,0,0,0-.043,1.824v.063l0,27.256a.505.505,0,0,0,.411.529l.173.032.033.012.058,0a1.809,1.809,0,0,0,.635-.481l.053-.063.058-.058c2.288-2.295,4.593-4.6,6.824-6.83a3.633,3.633,0,0,1,5.507,0q1.342,1.345,2.685,2.685c1.358,1.356,2.763,2.758,4.141,4.148l.056.057.051.061A1.813,1.813,0,0,0,188.056,879.733Z" transform="translate(-153.697 -840.889)" fill="#898a8d"/>
  </g>
</svg>
