<svg id="Icons_Bookmark_exp" data-name="Icons/Bookmark/exp" xmlns="http://www.w3.org/2000/svg" width="48" height="48" viewBox="0 0 48 48">
  <g id="Icons_Bookmark" data-name="Icons/Bookmark">
    <rect id="bg" width="48" height="48" fill="none"/>
    <path id="Path_1884" data-name="Path 1884" d="M167.9,883.747l-1.66-.081-.243-.153a4.509,4.509,0,0,1-3.293-4.556V851.915a20.727,20.727,0,0,1,.059-2.291l.008-.081a5.145,5.145,0,0,1,5.031-4.5h19.525a5.142,5.142,0,0,1,5.212,4.005,5.756,5.756,0,0,1,.15,1.371v28.58a4.5,4.5,0,0,1-3.26,4.55l-.282.189h-1.711l-.271-.078a5.8,5.8,0,0,1-2.78-1.771c-1.355-1.366-2.738-2.747-4.077-4.083q-1.307-1.3-2.614-2.613c-2.189,2.189-4.449,4.449-6.692,6.7a5.8,5.8,0,0,1-2.789,1.77Z" transform="translate(-153.696 -840.89)" fill="#ddd"/>
  </g>
  <g id="Icons_Bookmark-2" data-name="Icons/Bookmark">
    <rect id="bg-2" data-name="bg" width="48" height="48" fill="none"/>
    <path id="Path_1884-2" data-name="Path 1884" d="M167.9,883.747l-1.66-.081-.243-.153a4.509,4.509,0,0,1-3.293-4.556V851.915a20.727,20.727,0,0,1,.059-2.291l.008-.081a5.145,5.145,0,0,1,5.031-4.5h19.525a5.142,5.142,0,0,1,5.212,4.005,5.756,5.756,0,0,1,.15,1.371v28.58a4.5,4.5,0,0,1-3.26,4.55l-.282.189h-1.711l-.271-.078a5.8,5.8,0,0,1-2.78-1.771c-1.355-1.366-2.738-2.747-4.077-4.083q-1.307-1.3-2.614-2.613c-2.189,2.189-4.449,4.449-6.692,6.7a5.8,5.8,0,0,1-2.789,1.77Z" transform="translate(-153.696 -840.89)" fill="#004aff"/>
  </g>
</svg>
